# xmcd
#
# Track frame offsets:
# 151
# 8604
# 19614
# 38620
# 60673
# 79322
# 94573
# 110401
# 122134
# 137264
# 155571
# 169826
# 180922
#
# Disc length: 2573 seconds
#
#
# Revision: 0
# Processed by: cddbd v1.4PL0 Copyright (c) Steve Scherf et al.
# Submitted via: FreeRIP 2.35 
#
DISCID=900a0b0d
DTITLE=atahualpa yupanqui - estrellita
DYEAR=1960
DGENRE=Country
TTITLE0=estrellita
TTITLE1=jesus alegria del hombre
TTITLE2=oracion para perez car
TTITLE3=pastora india la quena
TTITLE4=cruz del sur
TTITLE5=cancion de cuna de hiroshima
TTITLE6=sarabnda
TTITLE7=estudio la gota de agua
TTITLE8=triste n 5
TTITLE9=la estancia vieja
TTITLE10=cancion del pueblo
TTITLE11=danza de las palomas enamoradas
TTITLE12=zamba de vargas
EXTD=
EXTT0=
EXTT1=
EXTT2=
EXTT3=
EXTT4=
EXTT5=
EXTT6=
EXTT7=
EXTT8=
EXTT9=
EXTT10=
EXTT11=
EXTT12=
PLAYORDER=
